<?xml version="1.0" encoding="UTF-8"?>
<svg width="260px" height="124px" viewBox="0 0 260 124" version="1.1" xmlns="http://www.w3.org/2000/svg" xmlns:xlink="http://www.w3.org/1999/xlink">
    <!-- Generator: Sketch 51.2 (57519) - http://www.bohemiancoding.com/sketch -->
    <title>apple_tv</title>
    <desc>Created with Sketch.</desc>
    <defs></defs>
    <g id="Main" stroke="none" stroke-width="1" fill="none" fill-rule="evenodd">
        <g transform="translate(-470.000000, -492.000000)" fill="#FFFFFF" fill-rule="nonzero" id="Inputs">
            <g transform="translate(400.000000, 354.000000)">
                <g id="Apple-TV">
                    <path d="M260.389607,168.197569 L281.312919,224.879317 C283.086644,229.31916 284.672302,233.50456 286.066206,237.431829 C287.46011,241.362787 288.791326,245.231055 290.059852,249.032947 L290.439673,249.032947 C291.704512,245.356433 293.068915,241.517665 294.529196,237.524019 C295.985789,233.530373 297.604635,229.315472 299.37836,224.875629 L320.489739,168.193881 L330,168.193881 L293.66999,259.490916 L285.870765,259.490916 L250.879345,168.197569 L260.389607,168.197569 Z M220.445771,148.037585 L220.445771,168.201257 L245.74255,168.201257 L245.74255,175.428908 L220.445771,175.428908 L220.445771,234.961153 C220.445771,241.049343 221.426667,245.706753 223.395833,248.940758 C225.361312,252.174763 228.750195,253.789922 233.573546,253.789922 C235.856156,253.789922 237.821635,253.664544 239.469982,253.410101 C241.118329,253.159346 242.512233,252.838527 243.655382,252.458706 L244.606777,259.306537 C241.564526,260.700441 237.504503,261.401081 232.434085,261.401081 C228.248685,261.401081 224.793425,260.700441 222.068305,259.306537 C219.339498,257.912633 217.185953,255.980342 215.600295,253.505978 C214.014637,251.031614 212.904676,248.055739 212.270413,244.567291 C211.632462,241.082531 211.319018,237.310139 211.319018,233.250117 L211.319018,175.428908 L196.292141,175.428908 L196.292141,168.201257 L211.319018,168.201257 L211.319018,151.459656 L220.445771,148.037585 Z M125.505411,148.738225 C133.614393,138.051626 144.887316,138 144.887316,138 C144.887316,138 146.565164,148.048648 138.507808,157.72485 C129.908378,168.061129 120.132611,166.368531 120.132611,166.368531 C120.132611,166.368531 118.296198,158.241111 125.505411,148.738225 Z M121.161445,173.408116 C125.332095,173.408116 133.072319,167.673933 143.150467,167.673933 C160.49683,167.673933 167.318848,180.016254 167.318848,180.016254 C167.318848,180.016254 153.973506,186.838271 153.973506,203.395493 C153.973506,222.073071 170.597104,228.507893 170.597104,228.507893 C170.597104,228.507893 158.977548,261.216702 143.279533,261.216702 C136.070319,261.216702 130.465202,256.356475 122.868793,256.356475 C115.128569,256.356475 107.443658,261.397393 102.443304,261.397393 C88.1096912,261.401081 70,230.370119 70,205.431035 C70,180.890209 85.3292581,168.016878 99.7034337,168.016878 C109.051442,168.016878 116.304906,173.408116 121.161445,173.408116 Z" id="apple_tv"></path>
                </g>
            </g>
        </g>
    </g>
</svg>