<?xml version="1.0" encoding="UTF-8"?>
<svg width="64px" height="64px" viewBox="0 0 64 64" version="1.1" xmlns="http://www.w3.org/2000/svg" xmlns:xlink="http://www.w3.org/1999/xlink">
    <!-- Generator: Sketch 51.2 (57519) - http://www.bohemiancoding.com/sketch -->
    <title>normal</title>
    <desc>Created with Sketch.</desc>
    <defs></defs>
    <g id="Main" stroke="none" stroke-width="1" fill="none" fill-rule="evenodd">
        <g transform="translate(-460.000000, -1298.000000)" fill="#FFFFFF" fill-rule="nonzero" id="Modes">
            <g transform="translate(400.000000, 1257.000000)">
                <g id="Normal">
                    <g id="Label" transform="translate(60.000000, 35.000000)">
                        <path d="M32,58.1538462 C30.6923077,58.1538462 29.6307692,59.2153846 29.6307692,60.5230769 L29.6307692,67.6307692 C29.6307692,68.9384615 30.6923077,70 32,70 C33.3076923,70 34.3692308,68.9384615 34.3692308,67.6307692 L34.3692308,60.5230769 C34.3692308,59.2153846 33.3076923,58.1538462 32,58.1538462 Z M32,6 C30.6923077,6 29.6307692,7.06153846 29.6307692,8.36923077 L29.6307692,15.4769231 C29.6307692,16.7846154 30.6923077,17.8461538 32,17.8461538 C33.3076923,17.8461538 34.3692308,16.7846154 34.3692308,15.4769231 L34.3692308,8.36923077 C34.3692308,7.06153846 33.3076923,6 32,6 Z M11.8461538,38 C11.8461538,36.6923077 10.7846154,35.6307692 9.47692308,35.6307692 L2.36923077,35.6307692 C1.06153846,35.6307692 0,36.6923077 0,38 C0,39.3076923 1.06153846,40.3692308 2.36923077,40.3692308 L9.47692308,40.3692308 C10.7846154,40.3692308 11.8461538,39.3076923 11.8461538,38 Z M61.6307692,35.6307692 L54.5230769,35.6307692 C53.2153846,35.6307692 52.1538462,36.6923077 52.1538462,38 C52.1538462,39.3076923 53.2153846,40.3692308 54.5230769,40.3692308 L61.6307692,40.3692308 C62.9384615,40.3692308 64,39.3076923 64,38 C64,36.6923077 62.9384615,35.6307692 61.6307692,35.6307692 Z M16.0769231,51.5538462 C15.4461538,51.5538462 14.8461538,51.8 14.4,52.2461538 L9.36923077,57.2769231 C8.92307692,57.7230769 8.67692308,58.3230769 8.67692308,58.9538462 C8.67692308,59.5846154 8.92307692,60.1846154 9.36923077,60.6307692 C9.81538462,61.0769231 10.4153846,61.3230769 11.0461538,61.3230769 C11.6769231,61.3230769 12.2769231,61.0769231 12.7230769,60.6307692 L17.7538462,55.6 C18.6769231,54.6769231 18.6769231,53.1692308 17.7538462,52.2461538 C17.3076923,51.8 16.7076923,51.5538462 16.0769231,51.5538462 Z M47.9230769,24.4461538 C48.5538462,24.4461538 49.1538462,24.2 49.6,23.7538462 L54.6307692,18.7230769 C55.0769231,18.2769231 55.3230769,17.6769231 55.3230769,17.0461538 C55.3230769,16.4153846 55.0769231,15.8153846 54.6307692,15.3692308 C54.1846154,14.9230769 53.5846154,14.6769231 52.9538462,14.6769231 C52.3230769,14.6769231 51.7230769,14.9230769 51.2769231,15.3692308 L46.2461538,20.4 C45.8,20.8461538 45.5538462,21.4461538 45.5538462,22.0769231 C45.5538462,22.7076923 45.8,23.3076923 46.2461538,23.7538462 C46.6923077,24.2 47.2923077,24.4461538 47.9230769,24.4461538 Z M12.7230769,15.3692308 C12.2769231,14.9230769 11.6769231,14.6769231 11.0461538,14.6769231 C10.4153846,14.6769231 9.81538462,14.9230769 9.36923077,15.3692308 C8.92307692,15.8153846 8.67692308,16.4153846 8.67692308,17.0461538 C8.67692308,17.6769231 8.92307692,18.2769231 9.36923077,18.7230769 L14.4,23.7538462 C14.8461538,24.2 15.4461538,24.4461538 16.0769231,24.4461538 C16.7076923,24.4461538 17.3076923,24.2 17.7538462,23.7538462 C18.2,23.3076923 18.4461538,22.7076923 18.4461538,22.0769231 C18.4461538,21.4461538 18.2,20.8461538 17.7538462,20.4 L12.7230769,15.3692308 Z M49.6,52.2461538 C49.1538462,51.8 48.5538462,51.5538462 47.9230769,51.5538462 C47.2923077,51.5538462 46.6923077,51.8 46.2461538,52.2461538 C45.3230769,53.1692308 45.3230769,54.6769231 46.2461538,55.6 L51.2769231,60.6307692 C51.7230769,61.0769231 52.3230769,61.3230769 52.9538462,61.3230769 C53.5846154,61.3230769 54.1846154,61.0769231 54.6307692,60.6307692 C55.0769231,60.1846154 55.3230769,59.5846154 55.3230769,58.9538462 C55.3230769,58.3230769 55.0769231,57.7230769 54.6307692,57.2769231 L49.6,52.2461538 Z M32,23.2307692 C23.8615385,23.2307692 17.2307692,29.8615385 17.2307692,38 C17.2307692,46.1384615 23.8615385,52.7692308 32,52.7692308 C40.1384615,52.7692308 46.7692308,46.1384615 46.7692308,38 C46.7692308,29.8615385 40.1384615,23.2307692 32,23.2307692 Z" id="normal"></path>
                    </g>
                </g>
            </g>
        </g>
    </g>
</svg>