<?xml version="1.0" encoding="UTF-8"?>
<svg width="260px" height="201px" viewBox="0 0 260 201" version="1.1" xmlns="http://www.w3.org/2000/svg" xmlns:xlink="http://www.w3.org/1999/xlink">
    <!-- Generator: Sketch 51.2 (57519) - http://www.bohemiancoding.com/sketch -->
    <title>ps4</title>
    <desc>Created with Sketch.</desc>
    <defs></defs>
    <g id="Main" stroke="none" stroke-width="1" fill="none" fill-rule="evenodd">
        <g transform="translate(-894.000000, -878.000000)" fill="#FFFFFF" fill-rule="nonzero" id="Inputs">
            <g transform="translate(400.000000, 354.000000)">
                <g id="Playstation-4" transform="translate(424.000000, 424.000000)">
                    <path d="M251.832073,224.527307 C256.004857,224.044793 260.204662,223.93092 264.400607,223.780375 C278.200518,223.832487 292.073771,225.548308 305.275364,229.690211 C307.865501,230.477675 310.374576,231.498675 312.955063,232.318949 C317.55632,234.000029 322.161437,236.03817 325.843986,239.346289 C328.055832,241.363199 329.964659,244.08265 329.98975,247.186182 C330.120994,249.714557 328.9784,252.138709 327.337851,254.001215 C324.218878,257.498479 320.096275,259.903331 315.958232,261.999373 C311.551911,264.24596 306.81555,265.695433 302.194992,267.405464 C273.992993,277.532475 245.787133,287.655627 217.590923,297.794219 C217.585133,289.892563 217.598644,281.994768 217.585133,274.102763 C217.627595,273.786234 217.455819,273.236168 217.899733,273.153175 C239.358112,265.519798 260.8107,257.86326 282.267149,250.206722 C285.168025,249.12203 288.292788,248.336496 290.753612,246.369768 C291.761102,245.578444 292.747361,244.320047 292.253266,242.961286 C291.737941,241.774301 290.506564,241.118081 289.373621,240.625917 C286.162005,239.354009 282.664741,239.108892 279.248539,239.012389 C273.90035,239.04906 268.505839,239.707209 263.418208,241.42303 C248.134083,246.77894 232.878909,252.200471 217.590923,257.53901 C217.592854,249.056408 217.585133,240.579595 217.594784,232.098923 C228.652083,228.217577 240.201547,225.864837 251.832073,224.527307 Z M167.224144,100 C178.530421,102.107623 189.643691,105.118512 200.704851,108.256786 C207.029649,110.094201 213.340937,111.995307 219.609764,114.019937 C229.456917,117.156281 239.261609,120.707587 248.180404,126.003664 C252.175623,128.429746 256.012577,131.170428 259.291745,134.513288 C262.844116,138.001272 265.754098,142.087921 267.888221,146.585797 C271.777287,154.707479 273.109026,163.780679 273.502758,172.701404 C273.688044,178.522458 273.676463,184.393693 272.587911,190.139474 C271.684644,195.132532 270.078836,200.056109 267.407637,204.392948 C265.049106,208.222182 261.769939,211.536091 257.79016,213.670734 C253.972507,215.728175 249.602857,216.708645 245.273738,216.621792 C238.707682,216.689344 232.336562,214.597162 226.444097,211.85262 C226.336014,192.256747 226.426727,172.657013 226.397776,153.065 C226.357244,149.519484 226.598502,145.937298 225.88245,142.440034 C225.378705,139.730233 224.274712,136.999202 222.145859,135.159857 C220.736917,133.887949 218.907223,133.169968 217.069808,132.782026 C215.211163,132.428825 213.228994,133.218219 212.078679,134.710153 C210.165992,137.099565 209.664177,140.272579 209.577325,143.246798 C209.561884,195.707689 209.596625,248.170511 209.561884,300.627543 C195.447547,296.154705 181.334966,291.676328 167.224144,287.192413 C167.210634,224.795585 167.216424,162.398758 167.224144,100 Z M103.790875,232.757072 C122.190113,226.243128 140.57005,219.663563 158.977008,213.172779 C159.005959,220.395054 158.977008,227.62119 158.988589,234.851185 C158.977008,235.831654 159.03877,236.815983 158.917177,237.790662 C144.368403,242.947776 129.846651,248.195602 115.313318,253.385527 C113.298338,254.147899 111.231247,255.008705 109.677551,256.546961 C108.953779,257.268802 108.363182,258.336124 108.758843,259.368705 C109.256798,260.586571 110.499755,261.250511 111.646209,261.750396 C114.834664,263.047394 118.320348,263.23268 121.717249,263.387084 C125.504022,263.327253 129.308165,263.043534 133.015805,262.22519 C135.52295,261.731095 137.935522,260.88766 140.324933,259.990183 C146.535858,257.741666 152.746783,255.479639 158.967358,253.254283 C159.011749,259.364845 158.975078,265.479267 158.986659,271.597549 C158.967358,272.819275 159.04263,274.048722 158.921037,275.264658 C151.281869,276.636929 143.551989,277.567217 135.787368,277.69074 C120.151973,278.043941 104.479906,275.623649 89.6281138,270.736743 C84.7585788,269.325871 79.9179947,267.445995 75.8494335,264.354043 C73.6105669,262.620852 71.6071672,260.441817 70.5880969,257.760967 C69.7350115,255.489289 69.7967733,252.868271 70.860235,250.677656 C71.8850955,248.490901 73.6761888,246.765429 75.6487076,245.422109 C80.2113634,242.270326 85.2468833,239.865474 90.3460951,237.72311 C94.7446961,235.850955 99.3034918,234.391831 103.790875,232.757072 Z" id="ps4"></path>
                </g>
            </g>
        </g>
    </g>
</svg>