<?xml version="1.0" encoding="UTF-8"?>
<svg width="320px" height="83px" viewBox="0 0 320 83" version="1.1" xmlns="http://www.w3.org/2000/svg" xmlns:xlink="http://www.w3.org/1999/xlink">
    <!-- Generator: Sketch 51.2 (57519) - http://www.bohemiancoding.com/sketch -->
    <title>snes</title>
    <desc>Created with Sketch.</desc>
    <defs></defs>
    <g id="Main" stroke="none" stroke-width="1" fill="none" fill-rule="evenodd">
        <g transform="translate(-864.000000, -512.000000)" fill="#FFFFFF" fill-rule="nonzero" id="Inputs">
            <g transform="translate(400.000000, 354.000000)">
                <g id="SNES" transform="translate(424.000000, 0.000000)">
                    <g id="snes" transform="translate(40.000000, 158.000000)">
                        <g id="Group">
                            <g id="Shape">
                                <path d="M12.9570552,14.3 C12.809816,15.2 12.8588957,16.15 13.0552147,17.15 C13.3006135,18.15 13.595092,19.05 13.8895706,19.85 C14.2822086,20.8 14.7730061,21.75 15.3128834,22.7 L21.1042945,34 C21.4478528,34.7 21.7423313,35.45 21.9386503,36.25 C22.1349693,36.95 22.2822086,37.8 22.3803681,38.75 C22.4785276,39.7 22.4294479,40.75 22.2331288,41.9 L21.1042945,48.5 C20.7607362,50 20.1717791,51.35 19.3865031,52.5 C19.0429448,53 18.6503067,53.5 18.1595092,53.95 C17.6687117,54.45 17.1288344,54.85 16.4417178,55.25 C15.803681,55.65 15.0674847,55.95 14.2331288,56.15 C13.398773,56.4 12.4662577,56.5 11.4355828,56.5 L7.31288344,56.5 C6.28220859,56.5 5.39877301,56.4 4.66257669,56.15 C3.92638037,55.9 3.28834356,55.6 2.74846626,55.25 C2.20858896,54.9 1.81595092,54.45 1.47239264,53.95 C1.12883436,53.45 0.932515337,53 0.736196319,52.5 C0.343558282,51.35 0.245398773,50 0.392638037,48.5 L2.50306748,36.25 L9.12883436,36.25 L7.01840491,48.5 C6.96932515,48.8 7.01840491,49.1 7.06748466,49.35 C7.16564417,49.55 7.26380368,49.75 7.4601227,49.95 C7.65644172,50.15 7.95092025,50.2 8.34355828,50.2 L12.4662577,50.2 C12.8588957,50.2 13.202454,50.1 13.4478528,49.95 C13.6932515,49.75 13.8895706,49.6 14.0368098,49.35 C14.1840491,49.1 14.3312883,48.8 14.3803681,48.5 L15.4110429,42.45 C15.5582822,41.55 15.5092025,40.6 15.3128834,39.6 C15.0674847,38.6 14.7730061,37.7 14.4785276,36.9 C14.0858896,35.95 13.595092,35 13.0552147,34.05 L7.36196319,22.75 C7.01840491,22.05 6.72392638,21.3 6.52760736,20.5 C6.33128834,19.8 6.18404908,18.95 6.08588957,18 C5.98773006,17.05 6.03680982,16 6.23312883,14.85 L7.36196319,8.25 C7.70552147,6.75 8.29447853,5.4 9.0797546,4.25 C9.42331288,3.75 9.81595092,3.25 10.3067485,2.8 C10.797546,2.3 11.3374233,1.9 12.0245399,1.5 C12.6625767,1.15 13.398773,0.8 14.2331288,0.6 C15.0674847,0.35 16,0.25 17.0306748,0.25 L21.1533742,0.25 C22.1840491,0.25 23.0674847,0.35 23.803681,0.6 C24.5398773,0.85 25.1779141,1.15 25.7177914,1.5 C26.2576687,1.9 26.6503067,2.3 26.993865,2.8 C27.2883436,3.3 27.5337423,3.75 27.7300613,4.25 C28.1226994,5.4 28.2208589,6.75 28.0736196,8.25 L25.9631902,20.5 L19.3374233,20.5 L21.4478528,8.25 C21.4969325,7.95 21.4478528,7.65 21.398773,7.4 C21.3006135,7.2 21.202454,7 21.006135,6.8 C20.809816,6.6 20.5153374,6.55 20.1226994,6.55 L16,6.55 C15.607362,6.55 15.2638037,6.65 15.0184049,6.8 C14.7730061,7 14.5766871,7.15 14.4294479,7.4 C14.2822086,7.65 14.1349693,7.95 14.0858896,8.25 L12.9570552,14.3 Z"></path>
                                <path d="M33.8650307,0.25 L40.4907975,0.25 L32.1472393,48.5 C32.0981595,48.8 32.1472393,49.1 32.196319,49.35 C32.2944785,49.55 32.392638,49.75 32.5889571,49.95 C32.7852761,50.15 33.0797546,50.2 33.4723926,50.2 L37.595092,50.2 C37.9877301,50.2 38.3312883,50.1 38.5766871,49.95 C38.8220859,49.75 39.0184049,49.6 39.1656442,49.35 C39.3128834,49.1 39.4601227,48.8 39.5092025,48.5 L47.8527607,0.25 L54.4785276,0.25 L46.1349693,48.5 C45.791411,50 45.202454,51.35 44.4171779,52.5 C44.0736196,53 43.6809816,53.5 43.190184,53.95 C42.6993865,54.45 42.1595092,54.85 41.4723926,55.25 C40.8343558,55.65 40.0981595,55.95 39.2638037,56.15 C38.4294479,56.4 37.4969325,56.5 36.4662577,56.5 L32.3435583,56.5 C31.3128834,56.5 30.4294479,56.4 29.6932515,56.15 C28.9570552,55.9 28.3190184,55.6 27.7791411,55.25 C27.2392638,54.9 26.8466258,54.45 26.5030675,53.95 C26.1595092,53.45 25.9631902,53 25.7668712,52.5 C25.3742331,51.35 25.2760736,50 25.4233129,48.5 L33.8650307,0.25 Z"></path>
                                <path d="M58.993865,0.25 L71.4110429,0.25 C72.4417178,0.25 73.3251534,0.35 74.0613497,0.6 C74.797546,0.85 75.4355828,1.15 75.9754601,1.5 C76.5153374,1.9 76.9079755,2.3 77.2515337,2.8 C77.5460123,3.3 77.791411,3.75 77.9877301,4.25 C78.3803681,5.4 78.4785276,6.75 78.3312883,8.25 L75.5828221,24 C75.2392638,25.5 74.6503067,26.85 73.8650307,28 C73.5214724,28.5 73.1288344,29 72.6380368,29.45 C72.1472393,29.95 71.607362,30.35 70.9202454,30.75 C70.2822086,31.15 69.5460123,31.45 68.7116564,31.65 C67.8773006,31.9 66.9447853,32 65.9141104,32 L60.1226994,32 L61.202454,25.65 L66.993865,25.65 C67.3865031,25.65 67.7300613,25.55 67.9754601,25.4 C68.2208589,25.2 68.4171779,25.05 68.5644172,24.8 C68.7116564,24.55 68.8588957,24.25 68.9079755,23.95 L71.6564417,8.2 C71.7055215,7.9 71.6564417,7.6 71.607362,7.35 C71.5092025,7.15 71.4110429,6.95 71.2147239,6.75 C71.0184049,6.55 70.7239264,6.5 70.3312883,6.5 L64.5398773,6.5 L55.9018405,56.5 L49.2760736,56.5 L58.993865,0.25 Z"></path>
                                <polygon points="86.3312883 25.7 94.6257669 25.7 93.5460123 32.05 85.2515337 32.05 82.1104294 50.2 90.404908 50.2 89.3251534 56.55 74.404908 56.55 84.1226994 0.3 99.0429448 0.3 97.9631902 6.65 89.6687117 6.65"></polygon>
                                <path d="M103.460123,0.25 L115.877301,0.25 C116.907975,0.25 117.791411,0.35 118.527607,0.6 C119.263804,0.85 119.90184,1.15 120.441718,1.5 C120.981595,1.9 121.374233,2.3 121.717791,2.8 C122.01227,3.3 122.257669,3.75 122.453988,4.25 C122.846626,5.4 122.944785,6.75 122.797546,8.25 L120.04908,24 C119.852761,25.05 119.460123,25.95 118.773006,26.75 C118.08589,27.55 117.300613,28.25 116.417178,28.85 C117.104294,29.45 117.644172,30.15 118.03681,30.95 C118.429448,31.75 118.527607,32.65 118.380368,33.7 L114.453988,56.5 L107.828221,56.5 L111.754601,33.7 C111.803681,33.4 111.754601,33.1 111.705521,32.85 C111.607362,32.65 111.509202,32.45 111.312883,32.25 C111.116564,32.05 110.822086,32 110.429448,32 L104.638037,32 L100.417178,56.45 L93.791411,56.45 L103.460123,0.25 Z M105.668712,25.7 L110.08589,25.7 L111.460123,25.7 C111.852761,25.7 112.196319,25.6 112.441718,25.45 C112.687117,25.25 112.883436,25.1 113.030675,24.85 C113.177914,24.6 113.325153,24.3 113.374233,24 L116.122699,8.25 C116.171779,7.95 116.122699,7.65 116.07362,7.4 C115.97546,7.2 115.877301,7 115.680982,6.8 C115.484663,6.6 115.190184,6.55 114.797546,6.55 L108.957055,6.55 L105.668712,25.7 Z"></path>
                                <path d="M132.613497,56.5 L142.331288,0.25 L148.957055,0.25 L139.239264,56.5 L132.613497,56.5 Z M145.079755,22.75 L148.957055,0.25 L152.490798,34 L148.613497,56.5 L145.079755,22.75 Z M148.662577,56.5 L158.380368,0.25 L165.006135,0.25 L155.288344,56.5 L148.662577,56.5 Z"></path>
                                <polygon points="169.423313 0.25 176.04908 0.25 166.331288 56.5 159.705521 56.5"></polygon>
                                <path d="M170.748466,56.5 L180.466258,0.25 L187.092025,0.25 L177.374233,56.5 L170.748466,56.5 Z M183.214724,22.75 L187.092025,0.25 L190.625767,34 L186.748466,56.5 L183.214724,22.75 Z M186.748466,56.5 L196.466258,0.25 L203.092025,0.25 L193.374233,56.5 L186.748466,56.5 Z"></path>
                                <polygon points="207.509202 0.25 223.803681 0.25 222.723926 6.6 218.306748 6.6 209.668712 56.5 202.208589 56.5 210.846626 6.6 206.429448 6.6"></polygon>
                                <polygon points="230.429448 25.7 238.723926 25.7 237.644172 32.05 229.349693 32.05 226.208589 50.2 234.503067 50.2 233.423313 56.55 218.503067 56.55 228.220859 0.25 243.141104 0.25 242.06135 6.6 233.766871 6.6"></polygon>
                                <path d="M237.840491,56.5 L247.558282,0.25 L254.184049,0.25 L244.466258,56.5 L237.840491,56.5 Z M250.306748,22.75 L254.184049,0.25 L257.717791,34 L253.840491,56.5 L250.306748,22.75 Z M253.840491,56.5 L263.558282,0.25 L270.184049,0.25 L260.466258,56.5 L253.840491,56.5 Z"></path>
                                <path d="M274.601227,0.25 L287.607362,0.25 C288.638037,0.25 289.521472,0.35 290.257669,0.6 C290.993865,0.85 291.631902,1.15 292.171779,1.5 C292.711656,1.9 293.104294,2.3 293.447853,2.8 C293.742331,3.3 293.98773,3.75 294.184049,4.25 C294.576687,5.4 294.674847,6.75 294.527607,8.25 L287.509202,48.5 C287.165644,50 286.576687,51.35 285.791411,52.5 C285.447853,53 285.055215,53.5 284.564417,53.95 C284.07362,54.45 283.533742,54.85 282.846626,55.25 C282.208589,55.65 281.472393,55.95 280.638037,56.15 C279.803681,56.4 278.871166,56.5 277.840491,56.5 L264.883436,56.5 L274.601227,0.25 Z M272.588957,50.15 L278.920245,50.15 C279.312883,50.15 279.656442,50.05 279.90184,49.9 C280.147239,49.7 280.343558,49.55 280.490798,49.3 C280.638037,49.05 280.785276,48.75 280.834356,48.45 L287.803681,8.25 C287.852761,7.95 287.803681,7.65 287.754601,7.4 C287.656442,7.2 287.558282,7 287.361963,6.8 C287.165644,6.6 286.871166,6.55 286.478528,6.55 L280.147239,6.55 L272.588957,50.15 Z"></path>
                                <path d="M298.895706,8.25 C299.239264,6.75 299.828221,5.4 300.613497,4.25 C300.957055,3.75 301.349693,3.25 301.840491,2.8 C302.331288,2.3 302.871166,1.9 303.558282,1.5 C304.196319,1.15 304.932515,0.8 305.766871,0.6 C306.601227,0.35 307.533742,0.25 308.564417,0.25 L312.687117,0.25 C313.717791,0.25 314.601227,0.35 315.337423,0.6 C316.07362,0.85 316.711656,1.15 317.251534,1.5 C317.791411,1.9 318.184049,2.3 318.527607,2.8 C318.822086,3.3 319.067485,3.75 319.263804,4.25 C319.656442,5.4 319.754601,6.75 319.607362,8.25 L312.638037,48.5 C312.294479,50 311.705521,51.35 310.920245,52.5 C310.576687,53 310.184049,53.5 309.693252,53.95 C309.202454,54.45 308.662577,54.85 307.97546,55.25 C307.337423,55.65 306.601227,55.95 305.766871,56.15 C304.932515,56.4 304,56.5 302.969325,56.5 L298.846626,56.5 C297.815951,56.5 296.932515,56.4 296.196319,56.15 C295.460123,55.9 294.822086,55.6 294.282209,55.25 C293.742331,54.9 293.349693,54.45 293.006135,53.95 C292.662577,53.45 292.466258,53 292.269939,52.5 C291.877301,51.35 291.779141,50 291.92638,48.5 L298.895706,8.25 Z M298.552147,48.5 C298.503067,48.8 298.552147,49.1 298.601227,49.35 C298.699387,49.55 298.797546,49.75 298.993865,49.95 C299.190184,50.15 299.484663,50.2 299.877301,50.2 L304,50.2 C304.392638,50.2 304.736196,50.1 304.981595,49.95 C305.226994,49.75 305.423313,49.6 305.570552,49.35 C305.717791,49.1 305.865031,48.8 305.91411,48.5 L312.883436,8.3 C312.932515,8 312.883436,7.7 312.834356,7.45 C312.736196,7.25 312.638037,7.05 312.441718,6.85 C312.245399,6.65 311.95092,6.6 311.558282,6.6 L307.435583,6.6 C307.042945,6.6 306.699387,6.7 306.453988,6.85 C306.208589,7.05 306.01227,7.2 305.865031,7.45 C305.717791,7.7 305.570552,8 305.521472,8.3 L298.552147,48.5 Z"></path>
                            </g>
                            <g id="Shape">
                                <path d="M12.9570552,14.3 C12.809816,15.2 12.8588957,16.15 13.0552147,17.15 C13.3006135,18.15 13.595092,19.05 13.8895706,19.85 C14.2822086,20.8 14.7730061,21.75 15.3128834,22.7 L21.1042945,34 C21.4478528,34.7 21.7423313,35.45 21.9386503,36.25 C22.1349693,36.95 22.2822086,37.8 22.3803681,38.75 C22.4785276,39.7 22.4294479,40.75 22.2331288,41.9 L21.1042945,48.5 C20.7607362,50 20.1717791,51.35 19.3865031,52.5 C19.0429448,53 18.6503067,53.5 18.1595092,53.95 C17.6687117,54.45 17.1288344,54.85 16.4417178,55.25 C15.803681,55.65 15.0674847,55.95 14.2331288,56.15 C13.398773,56.4 12.4662577,56.5 11.4355828,56.5 L7.31288344,56.5 C6.28220859,56.5 5.39877301,56.4 4.66257669,56.15 C3.92638037,55.9 3.28834356,55.6 2.74846626,55.25 C2.20858896,54.9 1.81595092,54.45 1.47239264,53.95 C1.12883436,53.45 0.932515337,53 0.736196319,52.5 C0.343558282,51.35 0.245398773,50 0.392638037,48.5 L2.50306748,36.25 L9.12883436,36.25 L7.01840491,48.5 C6.96932515,48.8 7.01840491,49.1 7.06748466,49.35 C7.16564417,49.55 7.26380368,49.75 7.4601227,49.95 C7.65644172,50.15 7.95092025,50.2 8.34355828,50.2 L12.4662577,50.2 C12.8588957,50.2 13.202454,50.1 13.4478528,49.95 C13.6932515,49.75 13.8895706,49.6 14.0368098,49.35 C14.1840491,49.1 14.3312883,48.8 14.3803681,48.5 L15.4110429,42.45 C15.5582822,41.55 15.5092025,40.6 15.3128834,39.6 C15.0674847,38.6 14.7730061,37.7 14.4785276,36.9 C14.0858896,35.95 13.595092,35 13.0552147,34.05 L7.36196319,22.75 C7.01840491,22.05 6.72392638,21.3 6.52760736,20.5 C6.33128834,19.8 6.18404908,18.95 6.08588957,18 C5.98773006,17.05 6.03680982,16 6.23312883,14.85 L7.36196319,8.25 C7.70552147,6.75 8.29447853,5.4 9.0797546,4.25 C9.42331288,3.75 9.81595092,3.25 10.3067485,2.8 C10.797546,2.3 11.3374233,1.9 12.0245399,1.5 C12.6625767,1.15 13.398773,0.8 14.2331288,0.6 C15.0674847,0.35 16,0.25 17.0306748,0.25 L21.1533742,0.25 C22.1840491,0.25 23.0674847,0.35 23.803681,0.6 C24.5398773,0.85 25.1779141,1.15 25.7177914,1.5 C26.2576687,1.9 26.6503067,2.3 26.993865,2.8 C27.2883436,3.3 27.5337423,3.75 27.7300613,4.25 C28.1226994,5.4 28.2208589,6.75 28.0736196,8.25 L25.9631902,20.5 L19.3374233,20.5 L21.4478528,8.25 C21.4969325,7.95 21.4478528,7.65 21.398773,7.4 C21.3006135,7.2 21.202454,7 21.006135,6.8 C20.809816,6.6 20.5153374,6.55 20.1226994,6.55 L16,6.55 C15.607362,6.55 15.2638037,6.65 15.0184049,6.8 C14.7730061,7 14.5766871,7.15 14.4294479,7.4 C14.2822086,7.65 14.1349693,7.95 14.0858896,8.25 L12.9570552,14.3 Z"></path>
                                <path d="M33.8650307,0.25 L40.4907975,0.25 L32.1472393,48.5 C32.0981595,48.8 32.1472393,49.1 32.196319,49.35 C32.2944785,49.55 32.392638,49.75 32.5889571,49.95 C32.7852761,50.15 33.0797546,50.2 33.4723926,50.2 L37.595092,50.2 C37.9877301,50.2 38.3312883,50.1 38.5766871,49.95 C38.8220859,49.75 39.0184049,49.6 39.1656442,49.35 C39.3128834,49.1 39.4601227,48.8 39.5092025,48.5 L47.8527607,0.25 L54.4785276,0.25 L46.1349693,48.5 C45.791411,50 45.202454,51.35 44.4171779,52.5 C44.0736196,53 43.6809816,53.5 43.190184,53.95 C42.6993865,54.45 42.1595092,54.85 41.4723926,55.25 C40.8343558,55.65 40.0981595,55.95 39.2638037,56.15 C38.4294479,56.4 37.4969325,56.5 36.4662577,56.5 L32.3435583,56.5 C31.3128834,56.5 30.4294479,56.4 29.6932515,56.15 C28.9570552,55.9 28.3190184,55.6 27.7791411,55.25 C27.2392638,54.9 26.8466258,54.45 26.5030675,53.95 C26.1595092,53.45 25.9631902,53 25.7668712,52.5 C25.3742331,51.35 25.2760736,50 25.4233129,48.5 L33.8650307,0.25 Z"></path>
                                <path d="M58.993865,0.25 L71.4110429,0.25 C72.4417178,0.25 73.3251534,0.35 74.0613497,0.6 C74.797546,0.85 75.4355828,1.15 75.9754601,1.5 C76.5153374,1.9 76.9079755,2.3 77.2515337,2.8 C77.5460123,3.3 77.791411,3.75 77.9877301,4.25 C78.3803681,5.4 78.4785276,6.75 78.3312883,8.25 L75.5828221,24 C75.2392638,25.5 74.6503067,26.85 73.8650307,28 C73.5214724,28.5 73.1288344,29 72.6380368,29.45 C72.1472393,29.95 71.607362,30.35 70.9202454,30.75 C70.2822086,31.15 69.5460123,31.45 68.7116564,31.65 C67.8773006,31.9 66.9447853,32 65.9141104,32 L60.1226994,32 L61.202454,25.65 L66.993865,25.65 C67.3865031,25.65 67.7300613,25.55 67.9754601,25.4 C68.2208589,25.2 68.4171779,25.05 68.5644172,24.8 C68.7116564,24.55 68.8588957,24.25 68.9079755,23.95 L71.6564417,8.2 C71.7055215,7.9 71.6564417,7.6 71.607362,7.35 C71.5092025,7.15 71.4110429,6.95 71.2147239,6.75 C71.0184049,6.55 70.7239264,6.5 70.3312883,6.5 L64.5398773,6.5 L55.9018405,56.5 L49.2760736,56.5 L58.993865,0.25 Z"></path>
                                <polygon points="86.3312883 25.7 94.6257669 25.7 93.5460123 32.05 85.2515337 32.05 82.1104294 50.2 90.404908 50.2 89.3251534 56.55 74.404908 56.55 84.1226994 0.3 99.0429448 0.3 97.9631902 6.65 89.6687117 6.65"></polygon>
                                <path d="M103.460123,0.25 L115.877301,0.25 C116.907975,0.25 117.791411,0.35 118.527607,0.6 C119.263804,0.85 119.90184,1.15 120.441718,1.5 C120.981595,1.9 121.374233,2.3 121.717791,2.8 C122.01227,3.3 122.257669,3.75 122.453988,4.25 C122.846626,5.4 122.944785,6.75 122.797546,8.25 L120.04908,24 C119.852761,25.05 119.460123,25.95 118.773006,26.75 C118.08589,27.55 117.300613,28.25 116.417178,28.85 C117.104294,29.45 117.644172,30.15 118.03681,30.95 C118.429448,31.75 118.527607,32.65 118.380368,33.7 L114.453988,56.5 L107.828221,56.5 L111.754601,33.7 C111.803681,33.4 111.754601,33.1 111.705521,32.85 C111.607362,32.65 111.509202,32.45 111.312883,32.25 C111.116564,32.05 110.822086,32 110.429448,32 L104.638037,32 L100.417178,56.45 L93.791411,56.45 L103.460123,0.25 Z M105.668712,25.7 L110.08589,25.7 L111.460123,25.7 C111.852761,25.7 112.196319,25.6 112.441718,25.45 C112.687117,25.25 112.883436,25.1 113.030675,24.85 C113.177914,24.6 113.325153,24.3 113.374233,24 L116.122699,8.25 C116.171779,7.95 116.122699,7.65 116.07362,7.4 C115.97546,7.2 115.877301,7 115.680982,6.8 C115.484663,6.6 115.190184,6.55 114.797546,6.55 L108.957055,6.55 L105.668712,25.7 Z"></path>
                                <path d="M132.613497,56.5 L142.331288,0.25 L148.957055,0.25 L139.239264,56.5 L132.613497,56.5 Z M145.079755,22.75 L148.957055,0.25 L152.490798,34 L148.613497,56.5 L145.079755,22.75 Z M148.662577,56.5 L158.380368,0.25 L165.006135,0.25 L155.288344,56.5 L148.662577,56.5 Z"></path>
                                <polygon points="169.423313 0.25 176.04908 0.25 166.331288 56.5 159.705521 56.5"></polygon>
                                <path d="M170.748466,56.5 L180.466258,0.25 L187.092025,0.25 L177.374233,56.5 L170.748466,56.5 Z M183.214724,22.75 L187.092025,0.25 L190.625767,34 L186.748466,56.5 L183.214724,22.75 Z M186.748466,56.5 L196.466258,0.25 L203.092025,0.25 L193.374233,56.5 L186.748466,56.5 Z"></path>
                                <polygon points="207.509202 0.25 223.803681 0.25 222.723926 6.6 218.306748 6.6 209.668712 56.5 202.208589 56.5 210.846626 6.6 206.429448 6.6"></polygon>
                                <polygon points="230.429448 25.7 238.723926 25.7 237.644172 32.05 229.349693 32.05 226.208589 50.2 234.503067 50.2 233.423313 56.55 218.503067 56.55 228.220859 0.25 243.141104 0.25 242.06135 6.6 233.766871 6.6"></polygon>
                                <path d="M237.840491,56.5 L247.558282,0.25 L254.184049,0.25 L244.466258,56.5 L237.840491,56.5 Z M250.306748,22.75 L254.184049,0.25 L257.717791,34 L253.840491,56.5 L250.306748,22.75 Z M253.840491,56.5 L263.558282,0.25 L270.184049,0.25 L260.466258,56.5 L253.840491,56.5 Z"></path>
                                <path d="M274.601227,0.25 L287.607362,0.25 C288.638037,0.25 289.521472,0.35 290.257669,0.6 C290.993865,0.85 291.631902,1.15 292.171779,1.5 C292.711656,1.9 293.104294,2.3 293.447853,2.8 C293.742331,3.3 293.98773,3.75 294.184049,4.25 C294.576687,5.4 294.674847,6.75 294.527607,8.25 L287.509202,48.5 C287.165644,50 286.576687,51.35 285.791411,52.5 C285.447853,53 285.055215,53.5 284.564417,53.95 C284.07362,54.45 283.533742,54.85 282.846626,55.25 C282.208589,55.65 281.472393,55.95 280.638037,56.15 C279.803681,56.4 278.871166,56.5 277.840491,56.5 L264.883436,56.5 L274.601227,0.25 Z M272.588957,50.15 L278.920245,50.15 C279.312883,50.15 279.656442,50.05 279.90184,49.9 C280.147239,49.7 280.343558,49.55 280.490798,49.3 C280.638037,49.05 280.785276,48.75 280.834356,48.45 L287.803681,8.25 C287.852761,7.95 287.803681,7.65 287.754601,7.4 C287.656442,7.2 287.558282,7 287.361963,6.8 C287.165644,6.6 286.871166,6.55 286.478528,6.55 L280.147239,6.55 L272.588957,50.15 Z"></path>
                                <path d="M298.895706,8.25 C299.239264,6.75 299.828221,5.4 300.613497,4.25 C300.957055,3.75 301.349693,3.25 301.840491,2.8 C302.331288,2.3 302.871166,1.9 303.558282,1.5 C304.196319,1.15 304.932515,0.8 305.766871,0.6 C306.601227,0.35 307.533742,0.25 308.564417,0.25 L312.687117,0.25 C313.717791,0.25 314.601227,0.35 315.337423,0.6 C316.07362,0.85 316.711656,1.15 317.251534,1.5 C317.791411,1.9 318.184049,2.3 318.527607,2.8 C318.822086,3.3 319.067485,3.75 319.263804,4.25 C319.656442,5.4 319.754601,6.75 319.607362,8.25 L312.638037,48.5 C312.294479,50 311.705521,51.35 310.920245,52.5 C310.576687,53 310.184049,53.5 309.693252,53.95 C309.202454,54.45 308.662577,54.85 307.97546,55.25 C307.337423,55.65 306.601227,55.95 305.766871,56.15 C304.932515,56.4 304,56.5 302.969325,56.5 L298.846626,56.5 C297.815951,56.5 296.932515,56.4 296.196319,56.15 C295.460123,55.9 294.822086,55.6 294.282209,55.25 C293.742331,54.9 293.349693,54.45 293.006135,53.95 C292.662577,53.45 292.466258,53 292.269939,52.5 C291.877301,51.35 291.779141,50 291.92638,48.5 L298.895706,8.25 Z M298.552147,48.5 C298.503067,48.8 298.552147,49.1 298.601227,49.35 C298.699387,49.55 298.797546,49.75 298.993865,49.95 C299.190184,50.15 299.484663,50.2 299.877301,50.2 L304,50.2 C304.392638,50.2 304.736196,50.1 304.981595,49.95 C305.226994,49.75 305.423313,49.6 305.570552,49.35 C305.717791,49.1 305.865031,48.8 305.91411,48.5 L312.883436,8.3 C312.932515,8 312.883436,7.7 312.834356,7.45 C312.736196,7.25 312.638037,7.05 312.441718,6.85 C312.245399,6.65 311.95092,6.6 311.558282,6.6 L307.435583,6.6 C307.042945,6.6 306.699387,6.7 306.453988,6.85 C306.208589,7.05 306.01227,7.2 305.865031,7.45 C305.717791,7.7 305.570552,8 305.521472,8.3 L298.552147,48.5 Z"></path>
                            </g>
                        </g>
                        <path d="M102.331288,73.9 L105.865031,73.9 L105.668712,65.1 L102.331288,73.9 Z M74.601227,64.95 C74.2576687,64.9 73.8650307,64.85 73.4233129,64.85 L72,64.85 L71.0674847,70.2 L72.4907975,70.2 C73.4723926,70.2 74.208589,70 74.6993865,69.65 C75.2883436,69.2 75.6809816,68.45 75.8282209,67.45 C75.9754601,66.5 75.8773006,65.85 75.5337423,65.45 C75.2883436,65.2 74.993865,65.05 74.601227,64.95 Z M0.245398773,60.25 L0.245398773,82.75 L319.754601,82.75 L319.754601,60.25 L0.245398773,60.25 Z M14.1840491,65 L9.27607362,65 L8.34355828,70.2 L12.9570552,70.2 L12.6134969,72.1 L8,72.1 L7.06748466,77.6 L12.2699387,77.6 L11.9263804,79.5 L4.51533742,79.5 L7.36196319,63 L14.5276074,63 L14.1840491,65 Z M29.0552147,79.55 L25.7668712,79.55 L24,68.1 C24,67.9 23.9018405,67.3 23.803681,66.25 C23.7546012,65.65 23.7055215,65.15 23.6564417,64.8 L23.5582822,65.35 L23.4601227,65.8 L23.3619632,66.5 L23.1656442,67.55 L21.1042945,79.55 L19.0920245,79.55 L21.9386503,63.05 L25.4233129,63.05 L26.9447853,72.85 C27.2392638,75.15 27.4355828,76.75 27.5337423,77.7 C27.5828221,77.35 27.6319018,76.85 27.6809816,76.15 C27.8282209,75.15 27.8773006,74.6 27.9263804,74.45 L29.8895706,63.05 L31.9018405,63.05 L29.0552147,79.55 Z M48.0981595,65 L44.3190184,65 L41.8159509,79.55 L39.607362,79.55 L42.1104294,65 L38.3803681,65 L38.7239264,63.05 L48.4907975,63.05 L48.0981595,65 Z M62.1840491,65 L57.2760736,65 L56.392638,70.2 L61.006135,70.2 L60.6625767,72.1 L56.0490798,72.1 L55.1165644,77.6 L60.3190184,77.6 L59.9754601,79.5 L52.5153374,79.5 L55.3619632,63 L62.5276074,63 L62.1840491,65 Z M78.0858896,67.3 C77.8404908,68.65 77.3496933,69.65 76.5153374,70.25 C76.0736196,70.6 75.4355828,70.85 74.6503067,71.05 C75.1411043,71.2 75.5337423,71.3 75.7791411,71.45 C76.3190184,71.75 76.5644172,72.4 76.5644172,73.35 C76.5644172,74 76.4662577,75.1 76.2699387,76.6 C76.1717791,77.6 76.1226994,78.35 76.2208589,78.8 C76.2699387,79.05 76.3190184,79.25 76.3680982,79.5 L73.8650307,79.5 C73.8159509,79.2 73.7668712,78.9 73.7668712,78.55 C73.7668712,78.35 73.8650307,77.6 73.9631902,76.35 C74.1104294,74.7 74.1595092,73.6 74.1595092,73.15 C74.1104294,72.75 73.9141104,72.45 73.6196319,72.3 C73.3742331,72.15 73.0797546,72.05 72.7852761,72 C72.5398773,71.95 72.196319,71.95 71.803681,71.95 L70.7239264,71.95 L69.4478528,79.45 L67.2392638,79.45 L70.0858896,62.95 L74.1595092,62.95 C75.2392638,62.95 76.0736196,63.05 76.5644172,63.2 C77.9386503,63.8 78.4785276,65.15 78.0858896,67.3 Z M95.2638037,65 L91.4846626,65 L88.9815951,79.55 L86.7730061,79.55 L89.2760736,65 L85.5460123,65 L85.8895706,63.05 L95.6564417,63.05 L95.2638037,65 Z M106.110429,79.55 L106.01227,75.8 L101.693252,75.8 L100.269939,79.55 L98.1104294,79.55 L104.687117,63.05 L107.631902,63.05 L108.515337,79.55 L106.110429,79.55 Z M117.840491,79.55 L115.631902,79.55 L118.478528,63.05 L120.687117,63.05 L117.840491,79.55 Z M135.263804,79.55 L131.97546,79.55 L130.208589,68.1 C130.208589,67.9 130.110429,67.3 130.01227,66.25 C129.96319,65.65 129.91411,65.15 129.865031,64.8 L129.766871,65.35 L129.668712,65.8 L129.570552,66.5 L129.374233,67.55 L127.312883,79.55 L125.300613,79.55 L128.147239,63.05 L131.631902,63.05 L133.153374,72.85 C133.447853,75.15 133.644172,76.75 133.742331,77.7 C133.791411,77.35 133.840491,76.85 133.889571,76.15 C134.03681,75.15 134.08589,74.6 134.134969,74.45 L136.09816,63.05 L138.110429,63.05 L135.263804,79.55 Z M155.828221,79.55 L153.91411,79.55 L156.368098,65.4 L150.478528,79.55 L148.269939,79.55 L147.288344,65.4 L144.834356,79.55 L142.920245,79.55 L145.766871,63.05 L149.447853,63.05 L150.233129,75.7 L154.993865,63.05 L158.674847,63.05 L155.828221,79.55 Z M173.202454,65 L168.294479,65 L167.411043,70.2 L172.02454,70.2 L171.680982,72.1 L167.067485,72.1 L166.134969,77.6 L171.288344,77.6 L170.944785,79.5 L163.484663,79.5 L166.331288,63 L173.496933,63 L173.202454,65 Z M188.07362,79.55 L184.785276,79.55 L183.018405,68.1 C183.018405,67.9 182.920245,67.3 182.822086,66.25 C182.773006,65.65 182.723926,65.15 182.674847,64.8 L182.576687,65.35 L182.478528,65.8 L182.380368,66.5 L182.184049,67.55 L180.122699,79.55 L178.110429,79.55 L180.957055,63.05 L184.441718,63.05 L185.96319,72.85 C186.257669,75.15 186.453988,76.75 186.552147,77.7 C186.601227,77.35 186.650307,76.85 186.699387,76.15 C186.846626,75.15 186.895706,74.6 186.944785,74.45 L188.907975,63.05 L190.920245,63.05 L188.07362,79.55 Z M207.116564,65 L203.337423,65 L200.834356,79.55 L198.625767,79.55 L201.128834,65 L197.398773,65 L197.742331,63.05 L207.509202,63.05 L207.116564,65 Z M232.441718,67.3 C232.441718,67.35 232.392638,67.55 232.343558,67.8 L230.08589,67.8 C230.134969,67.55 230.134969,67.4 230.184049,67.35 C230.282209,66.8 230.282209,66.4 230.282209,66.15 C230.134969,65.15 229.546012,64.65 228.417178,64.65 C227.680982,64.65 227.092025,64.9 226.650307,65.35 C226.257669,65.75 226.01227,66.25 225.91411,66.9 C225.815951,67.5 225.865031,67.95 226.06135,68.35 C226.306748,68.9 226.748466,69.35 227.435583,69.75 L228.760736,70.55 C229.93865,71.3 230.723926,72.05 231.067485,72.8 C231.361963,73.45 231.411043,74.3 231.214724,75.35 C230.969325,76.85 230.282209,78 229.251534,78.8 C228.319018,79.5 227.190184,79.8 225.766871,79.8 C224.147239,79.8 222.969325,79.4 222.331288,78.6 C221.693252,77.85 221.546012,76.65 221.791411,75.05 C221.840491,74.9 221.889571,74.6 221.98773,74.1 L224.245399,74.1 C224.196319,74.4 224.147239,74.65 224.09816,74.75 C223.95092,75.65 223.95092,76.35 224.09816,76.85 C224.343558,77.6 224.981595,77.95 226.01227,77.95 C226.944785,77.95 227.631902,77.65 228.122699,77.1 C228.515337,76.65 228.809816,76.1 228.907975,75.4 C229.055215,74.6 228.907975,73.95 228.466258,73.4 C228.122699,73 227.533742,72.5 226.601227,71.95 C225.668712,71.4 224.932515,70.85 224.441718,70.35 C223.656442,69.55 223.361963,68.45 223.656442,66.95 C223.90184,65.55 224.490798,64.5 225.423313,63.75 C226.306748,63.05 227.435583,62.75 228.760736,62.75 C230.282209,62.75 231.361963,63.15 232,63.95 C232.539877,64.7 232.687117,65.8 232.441718,67.3 Z M243.828221,72.7 L242.650307,79.55 L240.441718,79.55 L241.619632,72.7 L239.607362,63.05 L242.159509,63.05 L243.288344,70.3 L247.018405,63.05 L249.226994,63.05 L243.828221,72.7 Z M263.95092,67.3 C263.95092,67.35 263.90184,67.55 263.852761,67.8 L261.595092,67.8 C261.644172,67.55 261.644172,67.4 261.693252,67.35 C261.791411,66.8 261.791411,66.4 261.791411,66.15 C261.644172,65.15 261.055215,64.65 259.92638,64.65 C259.190184,64.65 258.601227,64.9 258.159509,65.35 C257.766871,65.75 257.521472,66.25 257.423313,66.9 C257.325153,67.5 257.374233,67.95 257.570552,68.35 C257.815951,68.9 258.257669,69.35 258.944785,69.75 L260.269939,70.55 C261.447853,71.3 262.233129,72.05 262.576687,72.8 C262.871166,73.45 262.920245,74.3 262.723926,75.35 C262.478528,76.85 261.791411,78 260.760736,78.8 C259.828221,79.5 258.699387,79.8 257.276074,79.8 C255.656442,79.8 254.478528,79.4 253.840491,78.6 C253.202454,77.85 253.055215,76.65 253.300613,75.05 C253.349693,74.9 253.398773,74.6 253.496933,74.1 L255.754601,74.1 C255.705521,74.4 255.656442,74.65 255.607362,74.75 C255.460123,75.65 255.460123,76.35 255.607362,76.85 C255.852761,77.6 256.490798,77.95 257.521472,77.95 C258.453988,77.95 259.141104,77.65 259.631902,77.1 C260.02454,76.65 260.319018,76.1 260.417178,75.4 C260.564417,74.6 260.417178,73.95 259.97546,73.4 C259.631902,73 259.042945,72.5 258.110429,71.95 C257.177914,71.4 256.441718,70.85 255.95092,70.35 C255.165644,69.55 254.871166,68.45 255.165644,66.95 C255.411043,65.55 256,64.5 256.932515,63.75 C257.815951,63.05 258.944785,62.75 260.269939,62.75 C261.791411,62.75 262.871166,63.15 263.509202,63.95 C264.04908,64.7 264.245399,65.8 263.95092,67.3 Z M280.883436,65 L277.104294,65 L274.601227,79.55 L272.392638,79.55 L274.895706,65 L271.165644,65 L271.509202,63.05 L281.226994,63.05 L280.883436,65 Z M295.018405,65 L290.110429,65 L289.226994,70.2 L293.840491,70.2 L293.496933,72.1 L288.883436,72.1 L287.95092,77.6 L293.153374,77.6 L292.809816,79.5 L285.349693,79.5 L288.196319,63 L295.361963,63 L295.018405,65 Z M313.128834,79.55 L311.214724,79.55 L313.668712,65.4 L307.779141,79.55 L305.570552,79.55 L304.588957,65.4 L302.134969,79.55 L300.220859,79.55 L303.067485,63.05 L306.748466,63.05 L307.533742,75.7 L312.294479,63.05 L315.97546,63.05 L313.128834,79.55 Z" id="Shape"></path>
                    </g>
                </g>
            </g>
        </g>
    </g>
</svg>