<?xml version="1.0" encoding="UTF-8"?>
<svg width="244px" height="260px" viewBox="0 0 244 260" version="1.1" xmlns="http://www.w3.org/2000/svg" xmlns:xlink="http://www.w3.org/1999/xlink">
    <!-- Generator: Sketch 51.2 (57519) - http://www.bohemiancoding.com/sketch -->
    <title>switch</title>
    <desc>Created with Sketch.</desc>
    <defs></defs>
    <g id="Main" stroke="none" stroke-width="1" fill="none" fill-rule="evenodd">
        <g transform="translate(-478.000000, -848.000000)" fill="#FFFFFF" fill-rule="nonzero" id="Inputs">
            <g transform="translate(400.000000, 354.000000)">
                <g id="Switch" transform="translate(0.000000, 424.000000)">
                    <g id="switch" transform="translate(78.000000, 70.000000)">
                        <path d="M75.4932426,163.328203 C59.1731304,160.410262 46.0423956,148.331344 41.9029909,132.452315 C40.4100908,126.718222 40.3083021,123.359197 40.4779499,78.8775603 C40.5797385,38.0263854 40.6136681,37.0763581 41.292259,33.9209102 C45.0584388,16.922207 57.1373576,4.80935864 74.3057085,0.805672063 C76.5450586,0.296728854 79.3951406,0.194940213 97.7510256,0.0931515709 C116.751572,-0.0425666181 118.719486,-0.00863707082 119.228429,0.500306138 C119.737372,1.00924935 119.771302,7.55765197 119.771302,81.7955014 C119.771302,136.829227 119.669513,162.751401 119.432006,163.226415 C119.092711,163.837147 118.515909,163.871076 98.6331939,163.837147 C82.4827294,163.803217 77.6308041,163.701428 75.4932426,163.328203 Z M106.199483,81.89729 L106.199483,13.1560273 L92.3901572,13.325675 C79.6665769,13.4613932 78.3093951,13.5292523 75.764679,14.1739137 C64.8393648,16.9900661 56.730203,25.4045938 54.4569233,36.3638376 C53.7104733,39.7907219 53.7104733,124.207435 54.4229938,127.566461 C56.4587666,137.100663 63.0750283,145.006248 71.9984993,148.56885 C76.4771995,150.367116 78.5469019,150.570694 93.0687481,150.604623 L106.199483,150.638553 L106.199483,81.89729 Z" id="Shape" transform="translate(80.094298, 81.935538) scale(-1, 1) rotate(-180.000000) translate(-80.094298, -81.935538) "></path>
                        <path d="M78.4111837,64.1390908 C76.2736222,63.7319363 73.0163857,62.103318 71.2859788,60.5764884 C67.7233763,57.4888996 65.9590399,53.111988 66.2304762,47.9546968 C66.3661944,45.2742626 66.5358422,44.5617421 67.6215877,42.390251 C69.2162764,39.099085 71.6252743,36.6900871 74.9164403,35.0614688 C77.18972,33.9417938 77.7665223,33.8060756 80.7183929,33.704287 C83.3988271,33.6024983 84.3488545,33.704287 86.1471205,34.3150188 C93.5098322,36.7918758 97.9546029,43.9510102 96.6992097,51.2797924 C95.2402391,59.9996861 86.9614296,65.8355682 78.4111837,64.1390908 Z" id="Shape" transform="translate(81.556855, 49.051284) scale(-1, 1) rotate(-180.000000) translate(-81.556855, -49.051284) "></path>
                        <path d="M136.294991,163.635164 C136.159273,163.533376 136.057484,126.753746 136.057484,81.8988848 C136.057484,7.89854226 136.091414,0.400112315 136.600357,0.196535031 C137.516455,-0.142760441 163.845784,-0.00704225221 167.10302,0.33225322 C180.878416,1.89301239 193.025194,10.2736106 199.641456,22.7257544 C200.489695,24.3204431 201.60937,27.0008774 202.186172,28.6634252 C204.323734,35.0421801 204.255874,33.3457027 204.255874,82.1024621 C204.255874,121.019653 204.188015,126.821605 203.713002,129.298462 C200.353977,146.975756 186.883946,160.310069 169.172723,163.363728 C166.797654,163.770882 163.133263,163.872671 151.325781,163.872671 C143.182689,163.872671 136.39678,163.770882 136.294991,163.635164 Z M172.531748,89.7366102 C177.824757,88.3454988 182.167739,84.3078827 183.932076,79.1505915 C185.051751,75.961214 185.017821,71.2789365 183.898146,68.3609955 C181.828444,63.000127 177.756898,59.2339473 172.531748,57.8428358 C164.049361,55.6374152 155.024101,60.7607769 152.547244,69.1753046 C151.800794,71.7539502 151.834724,76.0969322 152.682963,78.7434369 C155.227679,87.056176 164.049361,91.9420308 172.531748,89.7366102 Z" id="Shape" transform="translate(170.156800, 81.936335) scale(-1, 1) rotate(-180.000000) translate(-170.156800, -81.936335) "></path>
                        <path d="M229.126233,209.480944 C223.867153,207.750537 220.745634,202.695035 221.627803,197.198448 C222.170675,193.669775 224.206448,190.887552 227.327967,189.292864 C231.56916,187.189232 236.08179,187.732104 239.474745,190.785764 C242.019461,193.092973 243.105206,195.501971 243.105206,198.928855 C243.105206,202.152162 242.155179,204.56116 240.017617,206.698721 C237.337183,209.379156 232.519187,210.600619 229.126233,209.480944 Z M235.131762,204.52723 C237.167535,203.475414 238.28721,201.778937 238.456858,199.471728 C238.660435,196.451998 237.371113,194.280507 234.690678,193.160832 C230.144119,191.260777 224.986828,195.637689 226.276151,200.353896 C226.819023,202.457528 227.735121,203.645062 229.431599,204.493301 C231.263794,205.375469 233.401356,205.409399 235.131762,204.52723 Z" id="Shape" transform="translate(232.292315, 198.962825) scale(-1, 1) rotate(-180.000000) translate(-232.292315, -198.962825) "></path>
                        <polygon id="Shape" transform="translate(10.942279, 198.996795) scale(-1, 1) rotate(-180.000000) translate(-10.942279, -198.996795) " points="1.69647736 198.996795 1.69647736 188.614353 3.83403884 188.716142 5.93767077 188.81793 6.10731851 195.366333 6.27696624 201.914736 11.1967506 195.298474 16.1165349 188.648283 18.1523078 188.716142 20.1880806 188.81793 20.1880806 198.996795 20.1880806 209.175659 18.0844487 209.277447 15.9468872 209.379236 15.9468872 202.695115 15.9468872 195.977065 10.9592438 202.661186 5.93767077 209.345307 3.83403884 209.345307 1.69647736 209.345307"></polygon>
                        <polygon id="Shape" transform="translate(37.831445, 198.996795) scale(-1, 1) rotate(-180.000000) translate(-37.831445, -198.996795) " points="35.6260246 198.996795 35.6260246 188.648283 37.8314452 188.648283 40.0368658 188.648283 40.0368658 198.996795 40.0368658 209.345307 37.8314452 209.345307 35.6260246 209.345307"></polygon>
                        <path d="M55.4748098,208.938152 C55.3730211,208.700645 55.3390916,204.086227 55.3730211,198.691429 L55.4748098,188.85186 L57.6123712,188.750071 L59.7160032,188.648283 L59.7160032,195.502051 L59.7160032,202.389749 L64.8054353,195.535981 L69.8948673,188.682212 L71.9306402,188.682212 L73.966413,188.682212 L73.966413,199.030724 L73.966413,209.379236 L71.7609924,209.379236 L69.5555719,209.379236 L69.4877128,202.864763 L69.3859241,196.35029 L64.5000693,202.864763 L59.6481441,209.379236 L57.6463008,209.379236 C56.3230484,209.379236 55.5765984,209.243518 55.4748098,208.938152 Z" id="Shape" transform="translate(64.663355, 199.013759) scale(-1, 1) rotate(-180.000000) translate(-64.663355, -199.013759) "></path>
                        <path d="M88.4543297,209.1078 C88.3186115,209.006011 88.2168229,207.988125 88.2168229,206.902379 L88.2168229,204.934465 L91.6097776,204.934465 L95.0027323,204.934465 L95.0027323,196.791374 L95.0027323,188.648283 L97.2081529,188.648283 L99.4135735,188.648283 L99.4135735,196.791374 L99.4135735,204.934465 L102.63688,204.934465 L105.860187,204.934465 L105.860187,207.139886 L105.860187,209.345307 L97.276012,209.345307 C92.5258754,209.345307 88.5561183,209.243518 88.4543297,209.1078 Z" id="Shape" transform="translate(97.038505, 198.996795) scale(-1, 1) rotate(-180.000000) translate(-97.038505, -198.996795) "></path>
                        <polygon id="Shape" transform="translate(128.779597, 198.996795) scale(-1, 1) rotate(-180.000000) translate(-128.779597, -198.996795) " points="120.789188 198.996795 120.789188 188.648283 128.762632 188.648283 136.736075 188.648283 136.736075 190.684056 136.736075 192.719828 130.798405 192.719828 124.860734 192.719828 124.860734 195.094897 124.860734 197.469965 130.289461 197.469965 135.718189 197.469965 135.718189 199.33609 135.718189 201.202215 130.289461 201.202215 124.860734 201.202215 124.860734 203.237988 124.860734 205.273761 130.730546 205.34162 136.566428 205.443409 136.668216 207.411322 136.770005 209.345307 128.762632 209.345307 120.789188 209.345307"></polygon>
                        <path d="M153.531201,208.938152 C153.429413,208.700645 153.395483,204.086227 153.429413,198.691429 L153.531201,188.85186 L155.668763,188.750071 L157.772395,188.648283 L157.772395,195.535981 L157.772395,202.389749 L162.861827,195.535981 L167.951259,188.682212 L169.987032,188.682212 L172.022805,188.682212 L172.022805,199.030724 L172.022805,209.379236 L169.817384,209.379236 L167.611963,209.379236 L167.544104,202.864763 L167.442316,196.35029 L162.556461,202.864763 L157.704536,209.379236 L155.702692,209.379236 C154.37944,209.379236 153.63299,209.243518 153.531201,208.938152 Z" id="Shape" transform="translate(162.719747, 199.013759) scale(-1, 1) rotate(-180.000000) translate(-162.719747, -199.013759) "></path>
                        <path d="M189.326874,198.962865 L189.326874,188.580424 L193.839503,188.580424 C199.064654,188.580424 201.541511,189.089367 203.780861,190.650126 C210.397123,195.196685 209.379236,204.934465 201.948665,208.36135 C200.557554,209.006011 199.607526,209.1078 194.85739,209.209588 L189.326874,209.345307 L189.326874,198.962865 Z M200.421836,204.221945 C203.271918,202.898693 204.493381,199.268231 203.06834,196.248501 C201.982595,194.009151 199.777174,192.991265 195.909206,192.991265 L193.398419,192.991265 L193.398419,198.928936 L193.398419,204.866606 L196.214572,204.866606 C198.216415,204.866606 199.403949,204.663029 200.421836,204.221945 Z" id="Shape" transform="translate(198.756627, 198.962865) scale(-1, 1) rotate(-180.000000) translate(-198.756627, -198.962865) "></path>
                        <path d="M179.08015,259.394944 C174.363943,258.784213 170.156679,256.578792 166.695866,252.880471 C159.129577,244.73738 159.367083,232.353095 167.272668,224.48144 C170.190609,221.52957 172.837114,220.00274 176.637223,219.052713 C182.88026,217.458024 189.191155,218.713417 194.348447,222.615315 C196.35029,224.108215 198.962865,227.026156 198.759288,227.5351 C198.691429,227.670818 197.300317,228.926211 195.637769,230.385182 L192.651969,232.997757 L191.735872,231.810223 C187.35896,226.076129 178.503348,225.465397 173.379986,230.588759 C172.633536,231.335209 171.61565,232.72632 171.106707,233.710277 C170.258468,235.338895 170.156679,235.847839 170.156679,238.901498 C170.156679,241.819439 170.258468,242.531959 171.004918,243.99093 C173.515705,249.182151 179.724812,251.998303 185.11961,250.437544 C187.630396,249.725024 190.005465,248.232123 191.498365,246.433857 L192.651969,245.042746 L194.144869,246.26421 C194.959179,246.908871 196.384219,248.164264 197.300317,248.978573 L198.996795,250.505403 L197.673542,252.134021 C193.262701,257.49489 186.137496,260.277113 179.08015,259.394944 Z" id="Shape" transform="translate(180.087546, 238.967579) scale(-1, 1) rotate(-180.000000) translate(-180.087546, -238.967579) "></path>
                        <path d="M11.2646097,258.529744 C3.18937744,256.392182 -0.98395687,250.997384 0.814309134,244.890066 C2.10363193,240.377436 6.37875488,238.172016 17.7451532,236.136243 C25.3793013,234.779061 27.6186515,233.659386 27.6186515,231.250388 C27.6186515,229.58784 26.6346946,228.366376 24.4971331,227.38242 C22.6649376,226.534181 22.257783,226.466322 17.6433646,226.466322 C12.1807075,226.466322 10.043146,226.907406 6.00552986,228.739601 C4.75013662,229.316404 3.6643911,229.723558 3.59653201,229.655699 C3.18937744,229.146756 -0.0339295473,223.141226 0.0678590945,223.073367 C0.407154567,222.700142 5.83588213,220.732228 8.07523225,220.121496 C11.8074824,219.13754 19.780926,218.900033 23.8524717,219.646483 C31.4526903,221.071524 35.21887,224.566267 35.5581655,230.436079 C35.8296019,235.288004 34.47242,237.798791 30.2990857,239.970282 C27.3132855,241.531041 24.7346399,242.277491 18.1523078,243.600743 C12.4182143,244.720418 10.789596,245.263291 9.60206187,246.382966 C8.55024591,247.366923 8.55024591,249.131259 9.63599142,250.217005 C12.0789188,252.659932 20.832742,252.761721 27.6186515,250.386653 C28.7383265,250.013428 29.7562129,249.80985 29.8919311,249.945568 C30.129438,250.217005 32.5723654,255.951098 32.5723654,256.290394 C32.5723654,256.59576 27.3811446,258.122589 24.4632036,258.665462 C20.5273761,259.411912 14.4200576,259.344053 11.2646097,258.529744 Z" id="Shape" transform="translate(17.828468, 239.196605) scale(-1, 1) rotate(-180.000000) translate(-17.828468, -239.196605) "></path>
                        <path d="M40.1725839,257.627052 C40.2743726,257.287757 42.6494409,248.8393 45.4655933,238.864013 C48.2817457,228.888726 50.656814,220.440269 50.7586027,220.134903 C50.9282504,219.59203 51.4711232,219.524171 55.6444575,219.524171 L60.3606646,219.524171 L60.7338896,220.813494 C64.0929148,232.960271 67.4858695,244.360599 67.6555172,243.953445 C67.7573059,243.682008 69.3519946,238.117563 71.1841901,231.56916 L74.5092858,219.693818 L79.2594224,219.59203 L84.009559,219.490241 L89.404357,238.422929 C92.3562276,248.8393 94.8330846,257.559193 94.9348732,257.7967 C95.0366619,258.102066 94.0866345,258.203855 90.7954684,258.203855 L86.554275,258.203855 L86.0792614,256.609166 C85.807825,255.693068 84.1792067,249.58575 82.4487998,243.037347 C80.6844634,236.455015 79.1915633,231.060217 79.0558451,231.060217 C78.9540565,231.060217 77.3593677,236.217508 75.5271722,242.528404 C73.6949766,248.80537 71.8967106,254.912689 71.5234856,256.100223 L70.8788242,258.237784 L67.4180104,258.135995 L63.9571966,258.034207 L59.9874395,244.462388 C57.8159485,236.997888 56.0176825,230.82271 55.983753,230.720921 C55.9498234,230.619133 54.4229938,236.115719 52.6247278,242.935558 C50.7925322,249.755397 49.0960549,255.964504 48.8924776,256.778814 L48.485323,258.203855 L44.2441296,258.203855 C40.3422317,258.203855 40.0029362,258.169925 40.1725839,257.627052 Z" id="Shape" transform="translate(67.540442, 238.864013) scale(-1, 1) rotate(-180.000000) translate(-67.540442, -238.864013) "></path>
                        <polygon id="Shape" transform="translate(108.913847, 238.847048) scale(-1, 1) rotate(-180.000000) translate(-108.913847, -238.847048) " points="104.503006 238.830083 104.503006 219.490241 108.913847 219.490241 113.324688 219.490241 113.256829 238.762224 113.15504 258.000277 108.845988 258.102066 104.503006 258.203855"></polygon>
                        <polygon id="Shape" transform="translate(138.856672, 238.864013) scale(-1, 1) rotate(-180.000000) translate(-138.856672, -238.864013) " points="122.485666 253.962661 122.485666 249.721468 128.592984 249.721468 134.700303 249.721468 134.700303 234.622819 134.700303 219.524171 138.941496 219.524171 143.182689 219.524171 143.182689 234.622819 143.182689 249.721468 149.222149 249.789327 155.227679 249.891116 155.227679 253.962661 155.227679 258.034207 138.873637 258.135995 122.485666 258.203855"></polygon>
                        <polygon id="Shape" transform="translate(224.783251, 238.847048) scale(-1, 1) rotate(-180.000000) translate(-224.783251, -238.847048) " points="207.648829 238.830083 207.648829 219.490241 211.720375 219.490241 215.791921 219.490241 215.791921 227.124389 215.791921 234.758537 224.783251 234.758537 233.774581 234.758537 233.774581 227.124389 233.774581 219.490241 237.846126 219.490241 241.917672 219.490241 241.849813 238.762224 241.748024 258.000277 237.778267 258.102066 233.774581 258.203855 233.774581 250.535777 233.774581 242.901629 224.783251 242.901629 215.791921 242.901629 215.791921 250.535777 215.791921 258.169925 211.720375 258.169925 207.648829 258.169925"></polygon>
                    </g>
                </g>
            </g>
        </g>
    </g>
</svg>