<?xml version="1.0" encoding="UTF-8"?>
<svg width="260px" height="260px" viewBox="0 0 260 260" version="1.1" xmlns="http://www.w3.org/2000/svg" xmlns:xlink="http://www.w3.org/1999/xlink">
    <!-- Generator: Sketch 51.2 (57519) - http://www.bohemiancoding.com/sketch -->
    <title>xbox_one</title>
    <desc>Created with Sketch.</desc>
    <defs></defs>
    <g id="Main" stroke="none" stroke-width="1" fill="none" fill-rule="evenodd">
        <g transform="translate(-1318.000000, -848.000000)" fill="#FFFFFF" fill-rule="nonzero" id="Inputs">
            <g transform="translate(400.000000, 354.000000)">
                <g id="Xbox-One" transform="translate(848.000000, 424.000000)">
                    <path d="M108.788939,107.381049 L108.66593,107.490391 L108.66593,107.504058 C83.8900579,131.897207 69.9573771,165.224337 70.0001207,199.993112 C69.9612838,228.446567 79.2994362,256.11997 96.5700512,278.732499 C96.7477307,278.951182 97.0210839,279.074191 97.2671018,278.951182 C97.499452,278.814505 97.5131197,278.527485 97.4174461,278.281467 C87.5083928,247.638574 138.16074,173.368511 164.334308,142.233582 C164.416314,142.12424 164.525655,142.001231 164.525655,141.850887 C164.525655,141.673208 164.402646,141.536531 164.279637,141.42719 C120.256105,97.6086727 108.501918,107.627067 108.66593,107.490391 L108.788939,107.381049 Z M291.197526,107.381049 L291.320535,107.490391 L291.320535,107.504058 C316.093988,131.89772 330.022103,165.225709 329.972676,199.993112 C330.011513,228.446567 320.673361,256.11997 303.402746,278.732499 C303.238734,278.951182 302.951713,279.074191 302.705695,278.951182 C302.487013,278.814505 302.473345,278.527485 302.555351,278.281467 C312.464404,247.638574 261.85306,173.31384 235.69316,142.165243 C235.597486,142.055902 235.501812,141.932893 235.501812,141.796217 C235.501812,141.604869 235.611154,141.468193 235.74783,141.358851 C279.78503,97.5403344 291.457211,107.627067 291.306867,107.490391 L291.197526,107.381049 Z M199.993232,70 C226.221471,70 247.802706,77.189189 267.702819,89.0253823 C267.948837,89.1483913 268.017175,89.4217445 267.921501,89.6677624 C267.825828,89.9001126 267.552474,89.9547832 267.292789,89.8864449 C242.130627,84.4467163 203.874848,106.191963 200.266586,108.365121 C200.18458,108.419792 200.102574,108.474462 199.993232,108.474462 C199.870223,108.474462 199.788217,108.419792 199.706212,108.365121 C190.111514,102.857054 154.753279,84.3237074 132.488661,90.0231215 C132.242643,90.0777921 131.96929,90.0367892 131.859949,89.7907713 C131.763548,89.5520402 131.856594,89.2787183 132.078631,89.1483913 C151.978744,77.189189 173.833332,70 199.993232,70 Z M199.993232,174.256908 C200.143577,174.256908 200.307589,174.379917 200.403262,174.461923 C239.301422,204.038739 305.876592,277.160719 285.552782,297.839888 L285.580118,297.812552 L285.56645,297.839888 L285.539115,297.839888 C261.878832,318.607383 231.461244,330.040703 199.979565,329.999891 C168.494315,330.037757 138.073441,318.605028 114.406347,297.839888 L114.379012,297.812552 L114.406347,297.839888 C94.1235401,277.160719 160.685043,204.038739 199.5422,174.461923 C199.651541,174.379917 199.82922,174.256908 199.993232,174.256908 Z" id="xbox_one"></path>
                </g>
            </g>
        </g>
    </g>
</svg>